		<svg xmlns="http://www.w3.org/2000/svg" xmlns:xlink="http://www.w3.org/1999/xlink" version="1.1" width="293px" height="293px" viewBox="0 0 293 293" enable-background="new 0 0 293 293" xml:space="preserve" focusable="false">

					    <defs>
					      <clipPath id="clipper">
					          <rect x="100" y="0" width="100" height="100"></rect>
					      </clipPath>
					    </defs>

					    <g>
					    	<linearGradient id="SVGID_1_" gradientUnits="userSpaceOnUse" x1="0" y1="146.5" x2="293" y2="146.5">
					    		<stop offset="0.0899" style="stop-color:#EB202B"></stop>
					    		<stop offset="0.0975" style="stop-color:#EB372B"></stop>
					    		<stop offset="0.1287" style="stop-color:#EE6E2A"></stop>
					    		<stop offset="0.1597" style="stop-color:#F19126"></stop>
					    		<stop offset="0.1901" style="stop-color:#F4AE21"></stop>
					    		<stop offset="0.2196" style="stop-color:#F6C418;"></stop>
					    		<stop offset="0.248" style="stop-color:#F9D40C"></stop>
					    		<stop offset="0.2748" style="stop-color:#FADE00;"></stop>
					    		<stop offset="0.2984" style="stop-color:#FAE100"></stop>
					    		<stop offset="0.7299" style="stop-color:#FBE200"></stop>
					    		<stop offset="0.7576" style="stop-color:#DBD323;"></stop>
					    		<stop offset="0.7987" style="stop-color:#B2C235"></stop>
					    		<stop offset="0.84" style="stop-color:#8FB43D;"></stop>
					    		<stop offset="0.8811" style="stop-color: #45a046;"></stop>
					    		<stop offset="1" style="stop-color:#45A046"></stop>
					    	</linearGradient>
					    	<path fill="url(#SVGID_1_)" d="M173.269,0c-5.835,0-10.565,4.771-10.565,10.657c0,5.544,4.196,10.095,9.558,10.607   c56.988,11.991,99.811,62.915,99.811,123.96c0,69.955-56.221,126.665-125.571,126.665c-69.351,0-125.571-56.71-125.571-126.665   c0-61.1,42.901-112.061,99.967-123.992c5.239-0.631,9.304-5.12,9.304-10.575C130.199,4.771,125.468,0,119.633,0   c-1.342,0-2.621,0.263-3.802,0.723C49.65,14.947,0,74.224,0,145.224C0,226.84,65.59,293,146.5,293   c80.911,0,146.5-66.16,146.5-147.776c0-71.124-49.817-130.5-116.174-144.591C175.713,0.231,174.519,0,173.269,0L173.269,0z"></path>
					    </g>
					    <g>
					    	<path fill="#EB202B" d="M17.621,74.981c4.059,6.662,9.038,12.548,14.742,17.402c16.419-36.002,49.086-62.904,88.532-71.151   c5.239-0.631,9.304-5.12,9.304-10.575C130.199,4.771,125.468,0,119.633,0c-1.342,0-2.621,0.263-3.802,0.723   C73.359,9.852,37.723,37.552,17.621,74.981z"></path>
					    </g>

					    <linearGradient id="SVGID_2_" gradientUnits="userSpaceOnUse" x1="173.6953" y1="-4.7764" x2="258.457" y2="79.9853">
					    	<stop offset="0" style="stop-color:#44A047"></stop>
					    	<stop offset="1" style="stop-color:#44A047"></stop>
					    </linearGradient>
					    <path fill="url(#SVGID_2_)" d="M172.261,21.264c35.763,7.524,65.938,30.386,83.463,61.455c4.875-6.104,8.871-13.128,11.769-20.813  C246.563,31.048,214.343,8.6,176.826,0.633C175.713,0.231,174.519,0,173.269,0c-5.835,0-10.565,4.771-10.565,10.657  C162.703,16.201,166.899,20.752,172.261,21.264z"></path>
		
					    <linearGradient id="SVGID_3_" gradientUnits="userSpaceOnUse" x1="18.1694" y1="34.021" x2="110.6582" y2="34.021">
						    <stop offset="0" style="stop-color:#FFFFFF"></stop>
						    <stop offset="1" style="stop-color:#FFFFFF;stop-opacity:0"></stop>
					    </linearGradient>
					    <path id="clipped" clip-path="url(#clipper)" fill="url(#SVGID_3_)" d="M18.919,67.882c-0.126,0-0.254-0.032-0.371-0.099c-0.36-0.206-0.485-0.664-0.28-1.023  c19.68-34.479,53.027-58.748,91.49-66.585c0.405-0.081,0.802,0.179,0.885,0.585c0.083,0.406-0.179,0.802-0.585,0.885  c-38.04,7.751-71.021,31.756-90.487,65.859C19.433,67.746,19.179,67.882,18.919,67.882z" transform="translate(8 11)"></path>

					</svg>